<svg width="160" height="160" viewBox="0 0 160 160" fill="none" xmlns="http://www.w3.org/2000/svg">
<path d="M137.467 87.1333C134.933 87.1333 132.8 85.1999 132.467 82.6666C130.867 67.5999 122.733 53.9333 110.2 45.2666C107.933 43.6666 107.4 40.5999 108.933 38.3333C110.533 36.0666 113.667 35.5333 115.867 37.0666C130.8 47.3999 140.4 63.6666 142.333 81.5999C142.6 84.3333 140.667 86.7999 137.867 87.1333C137.8 87.1333 137.6 87.1333 137.467 87.1333Z" fill="#8A8F91"/>
<path d="M23.2668 87.4666C23.0668 87.4666 22.9334 87.4666 22.7334 87.4666C20.0001 87.1333 18.0001 84.6666 18.2668 81.9333C20.0668 64 29.6001 47.8 44.3334 37.3333C46.6001 35.7333 49.7334 36.2666 51.3334 38.5333C52.9334 40.8 52.4001 43.9333 50.1334 45.5333C37.7334 54.2666 29.7334 67.9333 28.2001 83C28.0001 85.5333 25.8001 87.4666 23.2668 87.4666Z" fill="#8A8F91"/>
<path d="M80.3999 150.733C70.5333 150.733 61.1333 148.467 52.3333 144.067C49.8666 142.8 48.8666 139.8 50.1333 137.333C51.3999 134.867 54.3999 133.867 56.8666 135.133C71.2666 142.4 88.5999 142.533 103.133 135.533C105.6 134.333 108.6 135.4 109.8 137.867C111 140.333 109.933 143.333 107.467 144.533C98.9333 148.667 89.8666 150.733 80.3999 150.733Z" fill="#8A8F91"/>
<path d="M80.4 56.2667C67.4 56.2667 56.8667 45.7333 56.8667 32.7333C56.8667 19.7333 67.4 9.20001 80.4 9.20001C93.4 9.20001 103.933 19.7333 103.933 32.7333C103.933 45.7333 93.3334 56.2667 80.4 56.2667ZM80.4 19.2667C72.9334 19.2667 66.8667 25.3333 66.8667 32.8C66.8667 40.2667 72.9334 46.3333 80.4 46.3333C87.8667 46.3333 93.9334 40.2667 93.9334 32.8C93.9334 25.3333 87.8 19.2667 80.4 19.2667Z" fill="#0F4662"/>
<path d="M32.2001 137.8C19.2001 137.8 8.66675 127.267 8.66675 114.267C8.66675 101.333 19.2001 90.7333 32.2001 90.7333C45.2001 90.7333 55.7334 101.267 55.7334 114.267C55.7334 127.2 45.2001 137.8 32.2001 137.8ZM32.2001 100.733C24.7334 100.733 18.6667 106.8 18.6667 114.267C18.6667 121.733 24.7334 127.8 32.2001 127.8C39.6667 127.8 45.7334 121.733 45.7334 114.267C45.7334 106.8 39.6667 100.733 32.2001 100.733Z" fill="#0F4662"/>
<path d="M127.8 137.8C114.8 137.8 104.267 127.267 104.267 114.267C104.267 101.333 114.8 90.7333 127.8 90.7333C140.8 90.7333 151.333 101.267 151.333 114.267C151.267 127.2 140.733 137.8 127.8 137.8ZM127.8 100.733C120.333 100.733 114.267 106.8 114.267 114.267C114.267 121.733 120.333 127.8 127.8 127.8C135.267 127.8 141.333 121.733 141.333 114.267C141.267 106.8 135.267 100.733 127.8 100.733Z" fill="#0F4662"/>
</svg>
