<svg width="70" height="70" viewBox="0 0 70 70" fill="none" xmlns="http://www.w3.org/2000/svg">
<path d="M34.9999 64.4C34.1249 64.4 33.2499 64.1958 32.5208 63.7875C27.0666 60.8125 17.4708 57.6625 11.4624 56.875L10.6166 56.7583C6.79575 56.2916 3.64575 52.7041 3.64575 48.825V13.5916C3.64575 11.2875 4.54992 9.18748 6.21242 7.67082C7.87492 6.15415 10.0333 5.42498 12.3083 5.62915C18.7249 6.12498 28.4083 9.33332 33.8916 12.775L34.5916 13.1833C34.7957 13.3 35.2333 13.3 35.4083 13.2125L35.8749 12.9208C41.3582 9.47915 51.0416 6.21248 57.4874 5.65832C57.5457 5.65832 57.7791 5.65832 57.8374 5.65832C59.9666 5.45415 62.1541 6.21248 63.7874 7.72915C65.4499 9.24582 66.3541 11.3458 66.3541 13.65V48.8541C66.3541 52.7625 63.2041 56.3208 59.3541 56.7875L58.3916 56.9042C52.3833 57.6917 42.7583 60.8708 37.4207 63.8166C36.7207 64.225 35.8749 64.4 34.9999 64.4ZM11.6083 9.97498C10.6749 9.97498 9.82909 10.2958 9.15825 10.9083C8.42909 11.5791 8.02075 12.5416 8.02075 13.5916V48.825C8.02075 50.5458 9.50825 52.2083 11.1708 52.4416L12.0458 52.5583C18.6083 53.4333 28.6707 56.7292 34.5041 59.9083C34.7666 60.025 35.1458 60.0541 35.2916 59.9958C41.1249 56.7583 51.2458 53.4333 57.8374 52.5583L58.8291 52.4416C60.4916 52.2375 61.9791 50.5458 61.9791 48.825V13.6208C61.9791 12.5416 61.5708 11.6083 60.8416 10.9083C60.0833 10.2375 59.1207 9.91665 58.0416 9.97498C57.9832 9.97498 57.7499 9.97498 57.6916 9.97498C52.1208 10.4708 43.1374 13.475 38.2374 16.5375L37.7707 16.8583C36.1666 17.85 33.8916 17.85 32.3458 16.8875L31.6458 16.4791C26.6583 13.4166 17.6749 10.4416 11.9583 9.97498C11.8416 9.97498 11.7249 9.97498 11.6083 9.97498Z" fill="#0F4662"/>
<path d="M35 61.95C33.8042 61.95 32.8125 60.9583 32.8125 59.7625V16.0125C32.8125 14.8166 33.8042 13.825 35 13.825C36.1958 13.825 37.1875 14.8166 37.1875 16.0125V59.7625C37.1875 60.9875 36.1958 61.95 35 61.95Z" fill="#0F4662"/>
<path d="M22.6042 26.95H16.0417C14.8459 26.95 13.8542 25.9583 13.8542 24.7625C13.8542 23.5666 14.8459 22.575 16.0417 22.575H22.6042C23.8001 22.575 24.7917 23.5666 24.7917 24.7625C24.7917 25.9583 23.8001 26.95 22.6042 26.95Z" fill="#0F4662"/>
<path d="M24.7917 35.7H16.0417C14.8459 35.7 13.8542 34.7083 13.8542 33.5125C13.8542 32.3166 14.8459 31.325 16.0417 31.325H24.7917C25.9876 31.325 26.9792 32.3166 26.9792 33.5125C26.9792 34.7083 25.9876 35.7 24.7917 35.7Z" fill="#0F4662"/>
</svg>
