<svg width="50" height="50" viewBox="0 0 50 50" fill="none" xmlns="http://www.w3.org/2000/svg">
<path d="M23.9584 45.3125C12.1876 45.3125 2.60425 35.7292 2.60425 23.9583C2.60425 12.1875 12.1876 2.60417 23.9584 2.60417C35.7292 2.60417 45.3126 12.1875 45.3126 23.9583C45.3126 35.7292 35.7292 45.3125 23.9584 45.3125ZM23.9584 5.72917C13.8959 5.72917 5.72925 13.9167 5.72925 23.9583C5.72925 34 13.8959 42.1875 23.9584 42.1875C34.0209 42.1875 42.1876 34 42.1876 23.9583C42.1876 13.9167 34.0209 5.72917 23.9584 5.72917Z" fill="white"/>
<path d="M45.8333 47.3958C45.4375 47.3958 45.0417 47.25 44.7292 46.9375L40.5625 42.7708C39.9583 42.1667 39.9583 41.1667 40.5625 40.5625C41.1667 39.9583 42.1667 39.9583 42.7708 40.5625L46.9375 44.7292C47.5417 45.3333 47.5417 46.3333 46.9375 46.9375C46.625 47.25 46.2292 47.3958 45.8333 47.3958Z" fill="white"/>
</svg>
