<svg width="60" height="60" viewBox="0 0 60 60" fill="none" xmlns="http://www.w3.org/2000/svg">
<path d="M30 5.5C43.531 5.5 54.5 16.469 54.5 30C54.5 43.531 43.531 54.5 30 54.5C16.469 54.5 5.5 43.531 5.5 30C5.5 16.469 16.469 5.5 30 5.5Z" fill="white" stroke="#0F4662"/>
<path d="M38.75 28.125H25.775L30.075 23.825C30.8 23.1 30.8 21.9 30.075 21.175C29.35 20.45 28.15 20.45 27.425 21.175L19.925 28.675C19.2 29.4 19.2 30.6 19.925 31.325L27.425 38.825C27.8 39.2 28.275 39.375 28.75 39.375C29.225 39.375 29.7 39.2 30.075 38.825C30.8 38.1 30.8 36.9 30.075 36.175L25.775 31.875H38.75C39.775 31.875 40.625 31.025 40.625 30C40.625 28.975 39.775 28.125 38.75 28.125Z" fill="#0F4662"/>
</svg>
