<svg width="50" height="50" viewBox="0 0 50 50" fill="none" xmlns="http://www.w3.org/2000/svg">
<path d="M29.1667 47.3958H20.8333C9.52083 47.3958 4.6875 42.5625 4.6875 31.25V18.75C4.6875 7.4375 9.52083 2.60417 20.8333 2.60417H29.1667C40.4792 2.60417 45.3125 7.4375 45.3125 18.75V31.25C45.3125 42.5625 40.4792 47.3958 29.1667 47.3958ZM20.8333 5.72917C11.2292 5.72917 7.8125 9.14583 7.8125 18.75V31.25C7.8125 40.8542 11.2292 44.2708 20.8333 44.2708H29.1667C38.7708 44.2708 42.1875 40.8542 42.1875 31.25V18.75C42.1875 9.14583 38.7708 5.72917 29.1667 5.72917H20.8333Z" fill="white"/>
<path d="M31.25 22.5625H18.75C16.1667 22.5625 14.0625 20.4583 14.0625 17.875V15.7917C14.0625 13.2083 16.1667 11.1042 18.75 11.1042H31.25C33.8333 11.1042 35.9375 13.2083 35.9375 15.7917V17.875C35.9375 20.4583 33.8333 22.5625 31.25 22.5625ZM18.75 14.2292C17.8958 14.2292 17.1875 14.9375 17.1875 15.7917V17.875C17.1875 18.7292 17.8958 19.4375 18.75 19.4375H31.25C32.1042 19.4375 32.8125 18.7292 32.8125 17.875V15.7917C32.8125 14.9375 32.1042 14.2292 31.25 14.2292H18.75Z" fill="white"/>
<path d="M16.9792 31.0833C16.7084 31.0833 16.4376 31.0208 16.1876 30.9167C15.9376 30.8125 15.7084 30.6667 15.5209 30.4792C15.1251 30.0833 14.9167 29.5625 14.9167 29C14.9167 28.7292 14.9584 28.4583 15.0626 28.2083C15.1667 27.9375 15.3126 27.7292 15.5209 27.5208C15.6042 27.4375 15.7084 27.3333 15.8334 27.2708C15.9376 27.1875 16.0626 27.125 16.1876 27.0833C16.3126 27.0208 16.4584 26.9792 16.5834 26.9583C17.2501 26.8125 17.9792 27.0417 18.4584 27.5208C18.6459 27.7083 18.8126 27.9375 18.9167 28.2083C19.0209 28.4583 19.0834 28.7292 19.0834 29C19.0834 29.5625 18.8542 30.0833 18.4584 30.4792C18.0626 30.875 17.5417 31.0833 16.9792 31.0833Z" fill="white"/>
<path d="M25.3333 31.0833C24.7708 31.0833 24.25 30.875 23.8542 30.4792C23.4583 30.0833 23.25 29.5625 23.25 29C23.25 28.7292 23.2917 28.4583 23.3958 28.2083C23.5 27.9375 23.6458 27.7292 23.8542 27.5208C23.9375 27.4375 24.0417 27.3333 24.1667 27.2708C24.2708 27.1875 24.3958 27.125 24.5208 27.0833C24.6458 27.0208 24.7917 26.9792 24.9167 26.9583C25.3125 26.875 25.7292 26.9167 26.125 27.0833C26.375 27.1875 26.6042 27.3333 26.7917 27.5208C26.9792 27.7292 27.1458 27.9375 27.25 28.2083C27.3542 28.4583 27.4167 28.7292 27.4167 29C27.4167 29.5625 27.1875 30.0833 26.7917 30.4792C26.3958 30.875 25.875 31.0833 25.3333 31.0833Z" fill="white"/>
<path d="M33.6458 31.0833C33.3749 31.0833 33.1041 31.0208 32.8541 30.9167C32.6041 30.8125 32.3749 30.6667 32.1874 30.4792C31.9791 30.2708 31.8333 30.0417 31.7291 29.7917C31.6249 29.5417 31.5833 29.2708 31.5833 29C31.5833 28.7292 31.6249 28.4583 31.7291 28.2083C31.8333 27.9375 31.9791 27.7292 32.1874 27.5208C32.9583 26.75 34.3541 26.75 35.1249 27.5208C35.5208 27.9167 35.7499 28.4583 35.7499 29C35.7499 29.5625 35.5208 30.0833 35.1249 30.4792C34.7499 30.8542 34.2291 31.0833 33.6458 31.0833Z" fill="white"/>
<path d="M16.9999 39.4167C16.4374 39.4167 15.9166 39.2083 15.5208 38.8125C15.1249 38.4167 14.8958 37.8958 14.8958 37.3333C14.8958 36.7917 15.1249 36.25 15.5208 35.8542C15.6041 35.7708 15.7291 35.6667 15.8333 35.6042C15.9374 35.5208 16.0624 35.4583 16.1874 35.4167C16.3124 35.3542 16.4583 35.3125 16.5833 35.2917C17.2708 35.1667 17.9791 35.375 18.4583 35.8542C18.5624 35.9583 18.6458 36.0625 18.7291 36.1667C18.7916 36.2917 18.8541 36.4167 18.9166 36.5417C18.9583 36.6667 18.9999 36.7917 19.0416 36.9167C19.0624 37.0625 19.0833 37.1875 19.0833 37.3333C19.0833 37.8958 18.8541 38.4167 18.4583 38.8125C18.0624 39.2083 17.5416 39.4167 16.9999 39.4167Z" fill="white"/>
<path d="M25.3334 39.4167C24.7709 39.4167 24.2501 39.2083 23.8542 38.8125C23.4584 38.4167 23.2292 37.8958 23.2292 37.3333C23.2292 36.7917 23.4584 36.25 23.8542 35.8542C24.3334 35.375 25.0626 35.1667 25.7292 35.2917C25.8542 35.3125 26.0001 35.3542 26.1251 35.4167C26.2501 35.4583 26.3751 35.5208 26.4792 35.6042C26.5834 35.6667 26.6876 35.7708 26.7917 35.8542C27.1876 36.25 27.3959 36.7917 27.3959 37.3333C27.3959 37.8958 27.1876 38.4167 26.7917 38.8125C26.3959 39.2083 25.8751 39.4167 25.3334 39.4167Z" fill="white"/>
<path d="M33.6458 39.4167C33.1041 39.4167 32.5833 39.2083 32.1874 38.8125C31.7916 38.4167 31.5833 37.8958 31.5833 37.3333C31.5833 36.7917 31.7916 36.25 32.1874 35.8542C32.3749 35.6667 32.6041 35.5208 32.8541 35.4167C33.6249 35.1042 34.5624 35.2708 35.1249 35.8542C35.5208 36.25 35.7291 36.7917 35.7291 37.3333C35.7291 37.8958 35.5208 38.4167 35.1249 38.8125C34.9374 39 34.7083 39.1458 34.4583 39.25C34.2083 39.3542 33.9374 39.4167 33.6458 39.4167Z" fill="white"/>
</svg>
