<svg width="160" height="160" viewBox="0 0 160 160" fill="none" xmlns="http://www.w3.org/2000/svg">
<path d="M144.667 42.6H96.2C93.4666 42.6 91.2 40.3333 91.2 37.6C91.2 34.8666 93.4666 32.6 96.2 32.6H144.667C147.4 32.6 149.667 34.8666 149.667 37.6C149.667 40.3333 147.4 42.6 144.667 42.6Z" fill="#0F4662"/>
<path d="M63.8666 42.6H15.3333C12.5999 42.6 10.3333 40.3333 10.3333 37.6C10.3333 34.8666 12.5999 32.6 15.3333 32.6H63.7999C66.5332 32.6 68.7999 34.8666 68.7999 37.6C68.7999 40.3333 66.5999 42.6 63.8666 42.6Z" fill="#8A8F91"/>
<path d="M144.667 107.2H96.2C93.4666 107.2 91.2 104.933 91.2 102.2C91.2 99.4667 93.4666 97.2 96.2 97.2H144.667C147.4 97.2 149.667 99.4667 149.667 102.2C149.667 104.933 147.4 107.2 144.667 107.2Z" fill="#8A8F91"/>
<path d="M144.667 147.6H96.2C93.4666 147.6 91.2 145.333 91.2 142.6C91.2 139.867 93.4666 137.6 96.2 137.6H144.667C147.4 137.6 149.667 139.867 149.667 142.6C149.667 145.333 147.4 147.6 144.667 147.6Z" fill="#8A8F91"/>
<path d="M120.6 66.8C117.867 66.8 115.6 64.5333 115.6 61.8V13.3333C115.6 10.6 117.867 8.33331 120.6 8.33331C123.333 8.33331 125.6 10.6 125.6 13.3333V61.8C125.6 64.6 123.4 66.8 120.6 66.8Z" fill="#0F4662"/>
<path d="M15.3334 151.667C14.0668 151.667 12.8001 151.2 11.8001 150.2C9.86676 148.267 9.86676 145.067 11.8001 143.133L60.2668 94.6667C62.2001 92.7333 65.4001 92.7333 67.3334 94.6667C69.2668 96.6 69.2668 99.8 67.3334 101.733L18.8668 150.2C17.9334 151.2 16.6668 151.667 15.3334 151.667Z" fill="#0F4662"/>
<path d="M63.8667 151.667C62.6001 151.667 61.3334 151.2 60.3334 150.2L11.8667 101.733C9.93341 99.8 9.93341 96.6 11.8667 94.6667C13.8001 92.7333 17.0001 92.7333 18.9334 94.6667L67.4001 143.133C69.3334 145.067 69.3334 148.267 67.4001 150.2C66.4001 151.2 65.1334 151.667 63.8667 151.667Z" fill="#0F4662"/>
</svg>
