<svg width="70" height="70" viewBox="0 0 70 70" fill="none" xmlns="http://www.w3.org/2000/svg">
<path d="M27.6505 60.346C26.1922 60.346 25.1714 59.8501 24.5589 59.3835C23.3922 58.5376 21.5839 56.3501 22.7214 51.4501L24.3838 44.2751C24.5296 43.6626 24.2088 42.5543 23.7713 42.0876L17.9672 36.2835C14.9047 33.221 15.1672 30.5668 15.5755 29.2543C15.9838 27.9418 17.3255 25.6376 21.5838 24.9085L29.0214 23.6835C29.5755 23.596 30.4797 22.9251 30.713 22.4293L34.8255 14.2043C36.8088 10.2376 39.4338 9.6543 40.8338 9.6543C42.2338 9.6543 44.8588 10.2376 46.8422 14.2043L50.9547 22.4293C51.2172 22.9251 52.0921 23.596 52.6463 23.6835L60.0838 24.9085C64.3422 25.6085 65.6838 27.9418 66.0922 29.2543C66.5005 30.5668 66.763 33.221 63.7005 36.2835L57.8963 42.0876C57.4588 42.5251 57.138 43.6626 57.2839 44.2751L58.9463 51.4501C60.0838 56.3793 58.2755 58.5376 57.1088 59.3835C55.9421 60.2293 53.3464 61.3085 48.9714 58.7127L42.0005 54.571C41.4171 54.221 40.1921 54.221 39.6088 54.571L32.638 58.7127C30.6255 59.9377 28.9339 60.346 27.6505 60.346ZM40.8338 14.0293C40.3672 14.0293 39.5213 14.5835 38.7338 16.1585L34.6213 24.3835C33.7463 26.1626 31.6755 27.6793 29.7213 28.0002L22.2839 29.2252C20.6214 29.5168 19.863 30.1293 19.7172 30.596C19.5714 31.0627 19.8338 31.996 21.0296 33.1918L26.8339 38.996C28.3214 40.4835 29.1089 43.196 28.6422 45.2376L26.9797 52.4126C26.4838 54.4835 26.8046 55.5918 27.1255 55.8543C27.4463 56.0876 28.613 56.0585 30.4213 54.9501L37.4213 50.8085C39.3755 49.6418 42.3214 49.6418 44.2464 50.8085L51.2172 54.9501C53.0547 56.0293 54.2214 56.0876 54.5422 55.8543C54.863 55.621 55.1838 54.5126 54.688 52.4126L53.0255 45.2376C52.5588 43.1668 53.3171 40.4835 54.8338 38.996L60.638 33.1918C61.8339 31.996 62.0963 31.0335 61.9505 30.596C61.8046 30.1585 61.0463 29.5168 59.3838 29.2252L51.9463 28.0002C49.9922 27.6793 47.9213 26.1626 47.0463 24.3835L42.9338 16.1585C42.1463 14.5835 41.3005 14.0293 40.8338 14.0293Z" fill="#0F4662"/>
<path d="M23.3334 16.7709H5.83337C4.63754 16.7709 3.64587 15.7792 3.64587 14.5834C3.64587 13.3875 4.63754 12.3959 5.83337 12.3959H23.3334C24.5292 12.3959 25.5209 13.3875 25.5209 14.5834C25.5209 15.7792 24.5292 16.7709 23.3334 16.7709Z" fill="#0F4662"/>
<path d="M14.5834 57.6041H5.83337C4.63754 57.6041 3.64587 56.6125 3.64587 55.4166C3.64587 54.2208 4.63754 53.2291 5.83337 53.2291H14.5834C15.7792 53.2291 16.7709 54.2208 16.7709 55.4166C16.7709 56.6125 15.7792 57.6041 14.5834 57.6041Z" fill="#0F4662"/>
<path d="M8.75004 37.1875H5.83337C4.63754 37.1875 3.64587 36.1958 3.64587 35C3.64587 33.8042 4.63754 32.8125 5.83337 32.8125H8.75004C9.94587 32.8125 10.9375 33.8042 10.9375 35C10.9375 36.1958 9.94587 37.1875 8.75004 37.1875Z" fill="#0F4662"/>
</svg>
