<svg width="25" height="25" viewBox="0 0 25 25" fill="none" xmlns="http://www.w3.org/2000/svg">
<path d="M11.7462 1.00254C12.0827 0.424772 12.9174 0.424771 13.2539 1.00254L16.8191 7.12363C16.9424 7.33528 17.149 7.48536 17.3884 7.5372L24.3116 9.0364C24.9651 9.17791 25.223 9.97174 24.7775 10.4703L20.0577 15.7526C19.8945 15.9352 19.8156 16.178 19.8403 16.4217L20.5538 23.4694C20.6212 24.1346 19.9459 24.6252 19.3341 24.3556L12.8519 21.4991C12.6277 21.4003 12.3724 21.4003 12.1483 21.4991L5.66606 24.3556C5.0542 24.6252 4.37893 24.1346 4.44628 23.4694L5.15985 16.4217C5.18452 16.178 5.10562 15.9352 4.94242 15.7526L0.222633 10.4703C-0.222869 9.97174 0.0350617 9.17791 0.688545 9.0364L7.61176 7.5372C7.85114 7.48536 8.05771 7.33528 8.18099 7.12363L11.7462 1.00254Z" fill="#AEB9E1"/>
</svg>
