<svg width="160" height="160" viewBox="0 0 160 160" fill="none" xmlns="http://www.w3.org/2000/svg">
<path opacity="0.4" d="M111.8 126.533H48.2001C45.4001 126.533 42.8668 124.733 41.9335 122.133L14.2001 44.4668C12.0001 38.2668 19.0668 33.0001 24.3335 36.8001L51.0001 55.8668C54.5335 58.4001 59.6001 56.8668 61.1335 52.8001L73.7335 19.2001C75.8668 13.4001 84.0668 13.4001 86.2001 19.2001L98.8001 52.8001C100.333 56.9334 105.333 58.4001 108.933 55.8668L135.6 36.8001C140.933 33.0001 147.933 38.3334 145.733 44.4668L118 122.133C117.133 124.733 114.6 126.533 111.8 126.533Z" fill="#171717"/>
<path d="M113.333 146.667H46.6667C43.9334 146.667 41.6667 144.4 41.6667 141.667C41.6667 138.933 43.9334 136.667 46.6667 136.667H113.333C116.067 136.667 118.333 138.933 118.333 141.667C118.333 144.4 116.067 146.667 113.333 146.667Z" fill="#0F4662"/>
<path d="M96.6666 98.3333H63.3333C60.5999 98.3333 58.3333 96.0666 58.3333 93.3333C58.3333 90.5999 60.5999 88.3333 63.3333 88.3333H96.6666C99.3999 88.3333 101.667 90.5999 101.667 93.3333C101.667 96.0666 99.3999 98.3333 96.6666 98.3333Z" fill="#0F4662"/>
</svg>
