<svg width="70" height="70" viewBox="0 0 70 70" fill="none" xmlns="http://www.w3.org/2000/svg">
<path d="M52.4995 23.0709C52.412 23.0709 52.3537 23.0709 52.2662 23.0709H52.1204C46.6079 22.8959 42.4954 18.6376 42.4954 13.3876C42.4954 8.02089 46.8704 3.67505 52.2079 3.67505C57.5454 3.67505 61.9204 8.05005 61.9204 13.3876C61.8912 18.6667 57.7787 22.9251 52.5287 23.1001C52.5287 23.0709 52.5287 23.0709 52.4995 23.0709ZM52.2079 8.0209C49.262 8.0209 46.8704 10.4126 46.8704 13.3584C46.8704 16.2459 49.1162 18.5792 52.0037 18.6959C52.0329 18.6667 52.2662 18.6667 52.5287 18.6959C55.3579 18.5501 57.5454 16.2167 57.5745 13.3584C57.5745 10.4126 55.1829 8.0209 52.2079 8.0209Z" fill="#0F4662"/>
<path d="M52.5291 44.5667C51.3916 44.5667 50.2541 44.4792 49.1166 44.275C47.9208 44.0708 47.1333 42.9334 47.3375 41.7375C47.5416 40.5417 48.6791 39.7542 49.875 39.9584C53.4625 40.5709 57.2541 39.9 59.7916 38.2084C61.1625 37.3042 61.8916 36.1667 61.8916 35.0292C61.8916 33.8917 61.1333 32.7833 59.7916 31.8792C57.2541 30.1875 53.4041 29.5167 49.7875 30.1584C48.5916 30.3917 47.4541 29.575 47.25 28.3792C47.0458 27.1834 47.8333 26.0459 49.0291 25.8417C53.7833 24.9959 58.7125 25.9 62.2125 28.2333C64.7791 29.9542 66.2666 32.4042 66.2666 35.0292C66.2666 37.625 64.8083 40.1042 62.2125 41.8542C59.5583 43.6042 56.1166 44.5667 52.5291 44.5667Z" fill="#0F4662"/>
<path d="M17.4124 23.0709C17.3832 23.0709 17.3541 23.0709 17.3541 23.0709C12.1041 22.8959 7.99157 18.6375 7.9624 13.3875C7.9624 8.02086 12.3374 3.64587 17.6749 3.64587C23.0124 3.64587 27.3874 8.02088 27.3874 13.3584C27.3874 18.6375 23.2749 22.8959 18.0249 23.0709L17.4124 20.8834L17.6166 23.0709C17.5582 23.0709 17.4707 23.0709 17.4124 23.0709ZM17.7041 18.6959C17.8791 18.6959 18.0249 18.6959 18.1999 18.725C20.7957 18.6084 23.0707 16.275 23.0707 13.3875C23.0707 10.4417 20.6791 8.05002 17.7332 8.05002C14.7874 8.05002 12.3957 10.4417 12.3957 13.3875C12.3957 16.2459 14.6124 18.55 17.4416 18.725C17.4707 18.6959 17.5874 18.6959 17.7041 18.6959Z" fill="#0F4662"/>
<path d="M17.3832 44.5667C13.7957 44.5667 10.3541 43.6042 7.69992 41.8542C5.13325 40.1334 3.64575 37.6542 3.64575 35.0292C3.64575 32.4333 5.13325 29.9542 7.69992 28.2333C11.1999 25.9 16.1291 24.9959 20.8833 25.8417C22.0791 26.0459 22.8666 27.1834 22.6624 28.3792C22.4583 29.575 21.3208 30.3917 20.1249 30.1584C16.5083 29.5167 12.6874 30.1875 10.1208 31.8792C8.74992 32.7833 8.02075 33.8917 8.02075 35.0292C8.02075 36.1667 8.77909 37.3042 10.1208 38.2084C12.6583 39.9 16.4499 40.5709 20.0374 39.9584C21.2332 39.7542 22.3708 40.5709 22.5749 41.7375C22.7791 42.9334 21.9916 44.0708 20.7958 44.275C19.6583 44.4792 18.5208 44.5667 17.3832 44.5667Z" fill="#0F4662"/>
<path d="M34.9995 44.8583C34.912 44.8583 34.8537 44.8583 34.7662 44.8583H34.6204C29.1079 44.6833 24.9954 40.4249 24.9954 35.1749C24.9954 29.8082 29.3704 25.4624 34.7079 25.4624C40.0454 25.4624 44.4204 29.8374 44.4204 35.1749C44.3912 40.4541 40.2787 44.7124 35.0287 44.8874C35.0287 44.8582 35.0287 44.8583 34.9995 44.8583ZM34.7079 29.8083C31.762 29.8083 29.3704 32.1999 29.3704 35.1458C29.3704 38.0333 31.6162 40.3666 34.5037 40.4833C34.5329 40.4541 34.7662 40.4541 35.0287 40.4833C37.8579 40.3374 40.0454 38.0041 40.0745 35.1458C40.0745 32.2291 37.6829 29.8083 34.7079 29.8083Z" fill="#0F4662"/>
<path d="M34.9993 66.3832C31.4993 66.3832 27.9993 65.4791 25.2868 63.6416C22.7202 61.9208 21.2327 59.4708 21.2327 56.8458C21.2327 54.2499 22.691 51.7416 25.2868 50.0207C30.741 46.4041 39.2868 46.4041 44.7118 50.0207C47.2785 51.7416 48.766 54.1916 48.766 56.8166C48.766 59.4124 47.3077 61.9208 44.7118 63.6416C41.9993 65.4499 38.4993 66.3832 34.9993 66.3832ZM27.7077 53.6958C26.3368 54.5999 25.6077 55.7374 25.6077 56.8749C25.6077 58.0124 26.366 59.1207 27.7077 60.0249C31.6452 62.6791 38.3243 62.6791 42.2618 60.0249C43.6327 59.1207 44.3618 57.9833 44.3618 56.8458C44.3618 55.7083 43.6035 54.5999 42.2618 53.6958C38.3535 51.0416 31.6743 51.0708 27.7077 53.6958Z" fill="#0F4662"/>
</svg>
