<svg width="50" height="50" viewBox="0 0 50 50" fill="none" xmlns="http://www.w3.org/2000/svg">
<path d="M45.8334 47.3958H10.4167C6.10425 47.3958 2.60425 43.8958 2.60425 39.5833V4.16667C2.60425 3.3125 3.31258 2.60417 4.16675 2.60417C5.02091 2.60417 5.72925 3.3125 5.72925 4.16667V39.5833C5.72925 42.1667 7.83342 44.2708 10.4167 44.2708H45.8334C46.6876 44.2708 47.3959 44.9792 47.3959 45.8333C47.3959 46.6875 46.6876 47.3958 45.8334 47.3958Z" fill="white"/>
<path d="M10.4164 36.9792C10.0622 36.9792 9.68721 36.8542 9.39554 36.6042C8.74971 36.0417 8.66638 35.0625 9.22888 34.3959L18.7914 23.2292C19.833 22.0208 21.333 21.2917 22.9164 21.2292C24.4997 21.1875 26.0622 21.7708 27.1872 22.8958L29.1664 24.875C29.6872 25.3958 30.3747 25.6458 31.1039 25.6458C31.833 25.625 32.4997 25.2917 32.9789 24.7292L42.5414 13.5625C43.1039 12.9167 44.083 12.8333 44.7497 13.3958C45.3955 13.9583 45.4789 14.9375 44.9164 15.6042L35.3539 26.7709C34.3122 27.9792 32.8122 28.7083 31.2289 28.7708C29.6455 28.8125 28.083 28.2292 26.958 27.1042L24.9997 25.125C24.4789 24.6042 23.7914 24.3333 23.0622 24.3542C22.333 24.375 21.6664 24.7084 21.1872 25.2709L11.6247 36.4375C11.2914 36.7917 10.8539 36.9792 10.4164 36.9792Z" fill="white"/>
</svg>
