<svg width="160" height="160" viewBox="0 0 160 160" fill="none" xmlns="http://www.w3.org/2000/svg">
<path fill-rule="evenodd" clip-rule="evenodd" d="M50.5213 19.4129C32.0606 23.6957 18.3333 40.2228 18.3333 60C18.3333 62.7614 16.0947 65 13.3333 65C10.5718 65 8.33325 62.7614 8.33325 60C8.33325 31.4386 31.4385 8.33331 59.9999 8.33331C61.8013 8.33331 63.4634 9.30227 64.3509 10.8698C65.2384 12.4373 65.2142 14.3611 64.2874 15.9058L57.2875 27.5724C55.8667 29.9403 52.7955 30.7082 50.4275 29.2875C48.0596 27.8667 47.2918 24.7954 48.7125 22.4275L50.5213 19.4129ZM146.667 95C149.428 95 151.667 97.2386 151.667 100C151.667 128.561 128.561 151.667 99.9999 151.667C98.1986 151.667 96.5365 150.698 95.6489 149.13C94.7614 147.563 94.7857 145.639 95.7124 144.094L102.712 132.428C104.133 130.06 107.204 129.292 109.572 130.713C111.94 132.133 112.708 135.205 111.287 137.572L109.479 140.587C127.939 136.304 141.667 119.777 141.667 100C141.667 97.2386 143.905 95 146.667 95Z" fill="#0F4662"/>
<path d="M109.333 54.7334L84.2667 41.2C81.6001 39.8 78.4666 39.8 75.7999 41.2L50.7332 54.7334C48.9332 55.7334 47.8 57.6667 47.8 59.8667C47.8 62.0667 48.9332 64 50.7332 65L75.7999 78.5334C77.1333 79.2667 78.6 79.6 80.0667 79.6C81.5334 79.6 82.9999 79.2667 84.3333 78.5334L109.4 65C111.2 64 112.333 62.0667 112.333 59.8667C112.267 57.6667 111.133 55.7334 109.333 54.7334Z" fill="#0F4662"/>
<path opacity="0.4" d="M71.6 83.1334L48.2667 71.4667C46.4667 70.6 44.4 70.6667 42.6667 71.7334C40.9334 72.8 39.9333 74.6 39.9333 76.6V98.6667C39.9333 102.467 42.0668 105.933 45.4668 107.6L68.8001 119.267C69.6001 119.667 70.4667 119.867 71.4 119.867C72.4667 119.867 73.4668 119.6 74.4001 119C76.1334 117.933 77.1335 116.133 77.1335 114.133V92.0667C77.1335 88.2667 75.0667 84.8667 71.6 83.1334Z" fill="#171717"/>
<path opacity="0.4" d="M117.267 71.7334C115.534 70.6667 113.467 70.6 111.667 71.4667L88.3335 83.1334C84.9335 84.8667 82.8003 88.2667 82.8003 92.0667V114.133C82.8003 116.133 83.8001 117.933 85.5334 119C86.4668 119.6 87.4669 119.867 88.5335 119.867C89.4002 119.867 90.267 119.667 91.1336 119.267L114.467 107.6C117.867 105.867 120 102.467 120 98.6667V76.6C120 74.6 119 72.8 117.267 71.7334Z" fill="#171717"/>
</svg>
