<svg width="70" height="70" viewBox="0 0 70 70" fill="none" xmlns="http://www.w3.org/2000/svg">
<path d="M43.7499 66.3542H26.2499C10.4124 66.3542 3.64575 59.5875 3.64575 43.75V26.25C3.64575 10.4125 10.4124 3.64587 26.2499 3.64587H32.0833C33.2791 3.64587 34.2708 4.63754 34.2708 5.83337C34.2708 7.02921 33.2791 8.02087 32.0833 8.02087H26.2499C12.8041 8.02087 8.02075 12.8042 8.02075 26.25V43.75C8.02075 57.1959 12.8041 61.9792 26.2499 61.9792H43.7499C57.1958 61.9792 61.9791 57.1959 61.9791 43.75V37.9167C61.9791 36.7209 62.9707 35.7292 64.1666 35.7292C65.3624 35.7292 66.3541 36.7209 66.3541 37.9167V43.75C66.3541 59.5875 59.5874 66.3542 43.7499 66.3542Z" fill="#0F4662"/>
<path d="M24.7916 51.5959C23.0125 51.5959 21.3791 50.9542 20.1833 49.7876C18.7541 48.3584 18.1416 46.2875 18.4625 44.1L19.7166 35.3209C19.95 33.6292 21.0583 31.4417 22.2541 30.2459L45.2375 7.26255C51.0416 1.45838 56.9333 1.45838 62.7375 7.26255C65.9166 10.4417 67.3458 13.6792 67.0541 16.9167C66.7916 19.5417 65.3916 22.1084 62.7375 24.7334L39.7541 47.7167C38.5583 48.9126 36.3708 50.0209 34.6791 50.2542L25.9 51.5084C25.5208 51.5959 25.1416 51.5959 24.7916 51.5959ZM48.3291 10.3542L25.3458 33.3375C24.7916 33.8917 24.15 35.175 24.0333 35.9334L22.7791 44.7125C22.6625 45.5584 22.8375 46.2584 23.275 46.6959C23.7125 47.1334 24.4125 47.3084 25.2583 47.1917L34.0375 45.9375C34.7958 45.8209 36.1083 45.1792 36.6333 44.625L59.6166 21.6417C61.5125 19.7459 62.5041 18.0542 62.65 16.4792C62.825 14.5834 61.8333 12.5709 59.6166 10.325C54.95 5.65838 51.7416 6.97088 48.3291 10.3542Z" fill="#0F4662"/>
<path d="M57.8958 28.6708C57.6916 28.6708 57.4875 28.6416 57.3125 28.5833C49.6416 26.425 43.5458 20.3291 41.3875 12.6583C41.0666 11.4916 41.7375 10.2958 42.9041 9.94581C44.0708 9.62498 45.2666 10.2958 45.5875 11.4625C47.3375 17.675 52.2666 22.6041 58.4791 24.3541C59.6458 24.675 60.3166 25.9 59.9958 27.0666C59.7333 28.0583 58.8583 28.6708 57.8958 28.6708Z" fill="#0F4662"/>
</svg>
