<svg width="50" height="50" viewBox="0 0 50 50" fill="none" xmlns="http://www.w3.org/2000/svg">
<path d="M25.0002 47.3958C23.6044 47.3958 22.1877 47.0416 20.9377 46.3124L8.56274 39.1666C6.06274 37.7083 4.50024 35.0207 4.50024 32.1249V17.875C4.50024 14.9792 6.06274 12.2916 8.56274 10.8333L20.9377 3.68749C23.4377 2.22916 26.5419 2.22916 29.0627 3.68749L41.4377 10.8333C43.9377 12.2916 45.5002 14.9792 45.5002 17.875V32.1249C45.5002 35.0207 43.9377 37.7083 41.4377 39.1666L29.0627 46.3124C27.8127 47.0416 26.3961 47.3958 25.0002 47.3958ZM25.0002 5.72912C24.1461 5.72912 23.2711 5.9583 22.5002 6.3958L10.1252 13.5416C8.58358 14.4374 7.62524 16.0833 7.62524 17.875V32.1249C7.62524 33.8957 8.58358 35.5624 10.1252 36.4583L22.5002 43.6041C24.0419 44.4999 25.9586 44.4999 27.5002 43.6041L39.8752 36.4583C41.4169 35.5624 42.3752 33.9166 42.3752 32.1249V17.875C42.3752 16.1042 41.4169 14.4374 39.8752 13.5416L27.5002 6.3958C26.7294 5.9583 25.8544 5.72912 25.0002 5.72912Z" fill="white"/>
<path d="M24.9999 24.4793C21.4583 24.4793 18.5833 21.6043 18.5833 18.0626C18.5833 14.5209 21.4583 11.646 24.9999 11.646C28.5416 11.646 31.4166 14.5209 31.4166 18.0626C31.4166 21.6043 28.5416 24.4793 24.9999 24.4793ZM24.9999 14.771C23.1874 14.771 21.7083 16.2501 21.7083 18.0626C21.7083 19.8751 23.1874 21.3543 24.9999 21.3543C26.8124 21.3543 28.2916 19.8751 28.2916 18.0626C28.2916 16.2501 26.8124 14.771 24.9999 14.771Z" fill="white"/>
<path d="M33.3334 36.271C32.4792 36.271 31.7709 35.5627 31.7709 34.7085C31.7709 31.8335 28.7292 29.4795 25.0001 29.4795C21.2709 29.4795 18.2292 31.8335 18.2292 34.7085C18.2292 35.5627 17.5209 36.271 16.6667 36.271C15.8126 36.271 15.1042 35.5627 15.1042 34.7085C15.1042 30.1044 19.5417 26.3545 25.0001 26.3545C30.4584 26.3545 34.8959 30.1044 34.8959 34.7085C34.8959 35.5627 34.1876 36.271 33.3334 36.271Z" fill="white"/>
</svg>
