<svg width="30" height="30" viewBox="0 0 30 30" fill="none" xmlns="http://www.w3.org/2000/svg">
<path d="M19.05 27.8375H18.8875C13.3375 27.8375 10.6625 25.65 10.2 20.75C10.15 20.2375 10.525 19.775 11.05 19.725C11.55 19.675 12.025 20.0625 12.075 20.575C12.4375 24.5 14.2875 25.9625 18.9 25.9625H19.0625C24.15 25.9625 25.95 24.1625 25.95 19.075V10.925C25.95 5.83748 24.15 4.03748 19.0625 4.03748H18.9C14.2625 4.03748 12.4125 5.52498 12.075 9.52498C12.0125 10.0375 11.575 10.425 11.05 10.375C10.525 10.3375 10.15 9.87498 10.1875 9.36248C10.6125 4.38748 13.3 2.16248 18.8875 2.16248H19.05C25.1875 2.16248 27.8125 4.78748 27.8125 10.925V19.075C27.8125 25.2125 25.1875 27.8375 19.05 27.8375Z" fill="#AEB9E1"/>
<path d="M18.75 15.9375H4.52502C4.01252 15.9375 3.58752 15.5125 3.58752 15C3.58752 14.4875 4.01252 14.0625 4.52502 14.0625H18.75C19.2625 14.0625 19.6875 14.4875 19.6875 15C19.6875 15.5125 19.2625 15.9375 18.75 15.9375Z" fill="#AEB9E1"/>
<path d="M7.31249 20.125C7.07499 20.125 6.83749 20.0375 6.64999 19.85L2.46249 15.6625C2.09999 15.3 2.09999 14.7 2.46249 14.3375L6.64999 10.15C7.01249 9.78749 7.61249 9.78749 7.97499 10.15C8.33749 10.5125 8.33749 11.1125 7.97499 11.475L4.44999 15L7.97499 18.525C8.33749 18.8875 8.33749 19.4875 7.97499 19.85C7.79999 20.0375 7.54999 20.125 7.31249 20.125Z" fill="#AEB9E1"/>
</svg>
