<svg width="70" height="70" viewBox="0 0 70 70" fill="none" xmlns="http://www.w3.org/2000/svg">
<path d="M35 66.3542C33.25 66.3542 31.5292 65.9458 30.1292 65.1583L16.3334 57.1958C10.6167 53.3458 10.2375 52.6458 10.2375 46.6083V32.1417C10.2375 26.1042 10.6167 25.4042 16.2167 21.6417L30.1584 13.5917C32.9292 11.9875 37.1 11.9875 39.8709 13.5917L53.6667 21.5542C59.3834 25.4042 59.7625 26.1042 59.7625 32.1417V46.6083C59.7625 52.6458 59.3834 53.3458 53.7834 57.1083L39.8417 65.1583C38.4709 65.975 36.7209 66.3542 35 66.3542ZM35 16.7708C34.0084 16.7708 33.0167 16.975 32.3167 17.3833L18.5209 25.3458C14.6125 28 14.6125 28 14.6125 32.1417V46.6083C14.6125 50.75 14.6125 50.75 18.6667 53.4917L32.3459 61.3667C33.7459 62.1833 36.2834 62.1833 37.6834 61.3667L51.4792 53.4042C55.3875 50.75 55.3875 50.75 55.3875 46.6083V32.1417C55.3875 28 55.3875 28 51.3334 25.2583L37.6542 17.3833C36.9834 16.975 35.9917 16.7708 35 16.7708Z" fill="#0F4662"/>
<path d="M51.0416 24.4417C49.8457 24.4417 48.8541 23.45 48.8541 22.2542V14.5834C48.8541 9.97504 46.8999 8.02087 42.2916 8.02087H27.7083C23.0999 8.02087 21.1458 9.97504 21.1458 14.5834V22.05C21.1458 23.2459 20.1541 24.2375 18.9583 24.2375C17.7624 24.2375 16.7708 23.275 16.7708 22.05V14.5834C16.7708 7.52504 20.6499 3.64587 27.7083 3.64587H42.2916C49.3499 3.64587 53.2291 7.52504 53.2291 14.5834V22.2542C53.2291 23.45 52.2374 24.4417 51.0416 24.4417Z" fill="#0F4662"/>
<path d="M39.754 51.4208C39.1415 51.4208 38.4999 51.3041 37.8582 51.0416L34.9999 49.9333L32.1415 51.0708C30.5957 51.6833 29.0207 51.5375 27.854 50.6916C26.6874 49.8458 26.0749 48.3875 26.1624 46.725L26.3374 43.6625L24.3832 41.3C23.3332 39.9875 22.9832 38.4708 23.4499 37.0708C23.8874 35.7 25.0832 34.65 26.6874 34.2416L29.6624 33.4833L31.3249 30.8875C33.104 28.0875 36.9249 28.0875 38.704 30.8875L40.3665 33.4833L43.3415 34.2416C44.9457 34.65 46.1415 35.7 46.579 37.0708C47.0165 38.4416 46.6665 39.9875 45.6165 41.2708L43.6624 43.6333L43.8374 46.6958C43.9249 48.3583 43.3124 49.7875 42.1457 50.6625C41.4457 51.1583 40.629 51.4208 39.754 51.4208ZM27.7665 38.5L29.7207 40.8625C30.3915 41.65 30.7707 42.9041 30.7124 43.925L30.5374 46.9875L33.3957 45.85C34.3582 45.4708 35.6415 45.4708 36.604 45.85L39.4624 46.9875L39.2874 43.925C39.229 42.9041 39.6082 41.6791 40.279 40.8625L42.2332 38.5L39.2582 37.7416C38.2665 37.4791 37.2165 36.7208 36.6624 35.875L35.029 33.3083L33.3665 35.875C32.8124 36.75 31.7624 37.5083 30.7707 37.7708L27.7665 38.5Z" fill="#0F4662"/>
</svg>
