<svg width="160" height="160" viewBox="0 0 160 160" fill="none" xmlns="http://www.w3.org/2000/svg">
<path opacity="0.4" d="M57.7999 93.3334H26.6666C19.3333 93.3334 13.3333 99.3334 13.3333 106.667V146.667H57.7999V93.3334Z" fill="#171717"/>
<path d="M88.8667 66.6666H71.0667C63.7334 66.6666 57.7334 72.6666 57.7334 80V146.667H102.2V80C102.2 72.6666 96.2667 66.6666 88.8667 66.6666Z" fill="#0F4662"/>
<path opacity="0.4" d="M133.333 113.333H102.2V146.667H146.667V126.667C146.667 119.333 140.667 113.333 133.333 113.333Z" fill="#171717"/>
<path d="M100.067 32.3333C102.133 30.2666 102.933 27.7999 102.267 25.6666C101.6 23.5333 99.5334 22 96.6 21.5333L90.2 20.4666C89.9333 20.3999 89.3334 19.9998 89.2 19.7332L85.6667 12.6665C83 7.26652 76.9333 7.26652 74.2667 12.6665L70.7334 19.7332C70.6 19.9998 70 20.3999 69.7333 20.4666L63.3333 21.5333C60.4 22 58.4 23.5333 57.6667 25.6666C57 27.7999 57.8 30.2666 59.8667 32.3333L64.8 37.3333C65 37.5333 65.2667 38.3333 65.2 38.5999L63.8 44.7332C62.7333 49.2665 64.4667 51.3331 65.6 52.1998C66.7333 52.9998 69.2 54.0666 73.2667 51.6666L79.2667 48.1332C79.5333 47.9332 80.4 47.9332 80.6667 48.1332L86.6667 51.6666C88.5333 52.7999 90.0667 53.1332 91.2667 53.1332C92.6667 53.1332 93.6667 52.5998 94.2667 52.1998C95.4 51.3998 97.1334 49.3332 96.0667 44.7332L94.6667 38.5999C94.6 38.2666 94.8 37.5333 95.0667 37.3333L100.067 32.3333Z" fill="#0F4662"/>
</svg>
