<svg width="160" height="160" viewBox="0 0 160 160" fill="none" xmlns="http://www.w3.org/2000/svg">
<path opacity="0.4" d="M144.4 69.6L137.867 97.4667C132.267 121.533 121.2 131.267 100.4 129.267C97.0666 129 93.4666 128.4 89.5999 127.467L78.3999 124.8C50.5999 118.2 41.9999 104.467 48.5332 76.6L55.0666 48.6667C56.3999 43 57.9999 38.0667 59.9999 34C67.7999 17.8667 81.0666 13.5333 103.333 18.8L114.467 21.4C142.4 27.9333 150.933 41.7333 144.4 69.6Z" fill="#171717"/>
<path d="M100.4 129.267C96.2668 132.067 91.0667 134.4 84.7334 136.467L74.2001 139.933C47.7334 148.467 33.8001 141.333 25.2001 114.867L16.6667 88.5333C8.13341 62.0667 15.2001 48.0667 41.6667 39.5333L52.2001 36.0667C54.9334 35.2 57.5334 34.4667 60.0001 34C58.0001 38.0667 56.4001 43 55.0667 48.6667L48.5334 76.6C42.0001 104.467 50.6001 118.2 78.4001 124.8L89.6001 127.467C93.4667 128.4 97.0667 129 100.4 129.267Z" fill="#0F4662"/>
<path d="M116.6 70.0666C116.2 70.0666 115.8 70 115.333 69.9333L82.9999 61.7333C80.3332 61.0666 78.7332 58.3333 79.3999 55.6666C80.0666 53 82.7999 51.4 85.4666 52.0666L117.8 60.2666C120.467 60.9333 122.067 63.6666 121.4 66.3333C120.867 68.5333 118.8 70.0666 116.6 70.0666Z" fill="#0F4662"/>
<path d="M97.0667 92.6C96.6667 92.6 96.2667 92.5334 95.8 92.4667L76.4 87.5334C73.7334 86.8667 72.1334 84.1334 72.8 81.4667C73.4667 78.8 76.2 77.2 78.8667 77.8667L98.2667 82.8C100.933 83.4667 102.533 86.2 101.867 88.8667C101.333 91.1334 99.3334 92.6 97.0667 92.6Z" fill="#0F4662"/>
</svg>
