<svg width="50" height="50" viewBox="0 0 50 50" fill="none" xmlns="http://www.w3.org/2000/svg">
<path d="M11.5416 40.6667C10.2708 40.6667 9.08331 40.2292 8.22914 39.4167C7.14581 38.3958 6.62497 36.8542 6.81247 35.1875L7.58331 28.4375C7.72914 27.1667 8.49997 25.4792 9.39581 24.5625L26.5 6.45833C30.7708 1.9375 35.2291 1.8125 39.75 6.08333C44.2708 10.3542 44.3958 14.8125 40.125 19.3333L23.0208 37.4375C22.1458 38.375 20.5208 39.25 19.25 39.4583L12.5416 40.6042C12.1875 40.625 11.875 40.6667 11.5416 40.6667ZM33.1875 6.0625C31.5833 6.0625 30.1875 7.0625 28.7708 8.5625L11.6666 26.6875C11.25 27.125 10.7708 28.1667 10.6875 28.7708L9.91664 35.5208C9.83331 36.2083 9.99997 36.7708 10.375 37.125C10.75 37.4792 11.3125 37.6042 12 37.5L18.7083 36.3542C19.3125 36.25 20.3125 35.7083 20.7291 35.2708L37.8333 17.1667C40.4166 14.4167 41.3541 11.875 37.5833 8.33333C35.9166 6.72917 34.4791 6.0625 33.1875 6.0625Z" fill="#AEB9E1"/>
<path d="M36.125 22.8125C36.0833 22.8125 36.0208 22.8125 35.9792 22.8125C29.4792 22.1667 24.25 17.2292 23.25 10.7708C23.125 9.91667 23.7083 9.125 24.5625 8.97917C25.4167 8.85417 26.2083 9.4375 26.3542 10.2917C27.1458 15.3333 31.2292 19.2083 36.3125 19.7083C37.1667 19.7917 37.7917 20.5625 37.7083 21.4167C37.6042 22.2083 36.9167 22.8125 36.125 22.8125Z" fill="#AEB9E1"/>
<path d="M43.75 47.3958H6.25C5.39583 47.3958 4.6875 46.6875 4.6875 45.8333C4.6875 44.9792 5.39583 44.2708 6.25 44.2708H43.75C44.6042 44.2708 45.3125 44.9792 45.3125 45.8333C45.3125 46.6875 44.6042 47.3958 43.75 47.3958Z" fill="#AEB9E1"/>
</svg>
