<svg width="50" height="50" viewBox="0 0 50 50" fill="none" xmlns="http://www.w3.org/2000/svg">
<path d="M25 34.8958C24.1666 34.8958 23.3333 34.8333 22.5416 34.6875C18.125 34.0417 14.1041 31.5 11.5625 27.7292C9.79163 25.0625 8.85413 21.9583 8.85413 18.75C8.85413 9.85416 16.1041 2.60416 25 2.60416C33.8958 2.60416 41.1458 9.85416 41.1458 18.75C41.1458 21.9583 40.2083 25.0625 38.4375 27.7292C35.875 31.5208 31.8541 34.0417 27.3958 34.7083C26.6666 34.8333 25.8333 34.8958 25 34.8958ZM25 5.72916C17.8125 5.72916 11.9791 11.5625 11.9791 18.75C11.9791 21.3542 12.7291 23.8542 14.1458 25.9792C16.2083 29.0208 19.4375 31.0625 23.0208 31.5833C24.3541 31.8125 25.6666 31.8125 26.8958 31.5833C30.5416 31.0625 33.7708 29 35.8333 25.9583C37.25 23.8333 38 21.3333 38 18.7291C38.0208 11.5625 32.1875 5.72916 25 5.72916Z" fill="#AEB9E1"/>
<path d="M13.4787 47.0624C13.1871 47.0624 12.9162 47.0208 12.6246 46.9583C11.2704 46.6458 10.2287 45.6041 9.91625 44.2499L9.18708 41.1874C9.14541 40.9999 8.99958 40.8541 8.79125 40.7916L5.35375 39.9791C4.06208 39.6666 3.04125 38.7083 2.68708 37.4374C2.33291 36.1666 2.68708 34.7916 3.62458 33.8541L11.7496 25.7291C12.0829 25.3958 12.5412 25.2291 12.9996 25.2708C13.4579 25.3124 13.8746 25.5624 14.1454 25.9582C16.2079 28.9999 19.4371 31.0624 23.0412 31.5833C24.3746 31.8124 25.6871 31.8124 26.9162 31.5833C30.5621 31.0624 33.7912 28.9999 35.8537 25.9582C36.1037 25.5624 36.5412 25.3124 36.9996 25.2708C37.4579 25.2291 37.9162 25.3958 38.2496 25.7291L46.3746 33.8541C47.3121 34.7916 47.6662 36.1666 47.3121 37.4374C46.9579 38.7083 45.9162 39.6874 44.6454 39.9791L41.2079 40.7916C41.0204 40.8332 40.8746 40.9791 40.8121 41.1874L40.0829 44.2499C39.7704 45.6041 38.7287 46.6458 37.3746 46.9583C36.0204 47.2916 34.6246 46.8124 33.7496 45.7499L24.9996 35.6874L16.2496 45.7708C15.5412 46.6041 14.5412 47.0624 13.4787 47.0624ZM12.6871 29.2291L5.83291 36.0833C5.64541 36.2708 5.66625 36.4791 5.70791 36.6041C5.72875 36.7083 5.83291 36.9166 6.08291 36.9582L9.52041 37.7708C10.8746 38.0833 11.9162 39.1249 12.2287 40.4791L12.9579 43.5416C13.0204 43.8124 13.2287 43.8958 13.3537 43.9374C13.4787 43.9583 13.6871 43.9791 13.8746 43.7708L21.8537 34.5833C18.3121 33.8958 15.0621 31.9999 12.6871 29.2291ZM28.1454 34.5624L36.1246 43.7291C36.3121 43.9582 36.5412 43.9582 36.6662 43.9166C36.7912 43.8957 36.9787 43.7916 37.0621 43.5208L37.7912 40.4583C38.1037 39.1041 39.1454 38.0624 40.4996 37.7499L43.9371 36.9375C44.1871 36.875 44.2912 36.6874 44.3121 36.5833C44.3537 36.4791 44.3746 36.2499 44.1871 36.0624L37.3329 29.2082C34.9371 31.9791 31.7079 33.8749 28.1454 34.5624Z" fill="#AEB9E1"/>
<path d="M28.9378 26.8542C28.3962 26.8542 27.7503 26.7084 26.9795 26.25L25.0003 25.0625L23.0212 26.2292C21.2087 27.3125 20.0212 26.6875 19.5837 26.375C19.1462 26.0625 18.2087 25.125 18.6878 23.0625L19.1878 20.9167L17.5212 19.375C16.6045 18.4583 16.2712 17.3542 16.5837 16.3542C16.8962 15.3542 17.8128 14.6458 19.1045 14.4375L21.3337 14.0625L22.3962 11.7292C23.0003 10.5417 23.9378 9.87498 25.0003 9.87498C26.0628 9.87498 27.0212 10.5625 27.6045 11.75L28.8337 14.2084L30.8962 14.4583C32.167 14.6667 33.0837 15.375 33.417 16.375C33.7295 17.375 33.3962 18.4792 32.4795 19.3958L30.7503 21.125L31.292 23.0625C31.7712 25.125 30.8337 26.0625 30.3962 26.375C30.167 26.5625 29.667 26.8542 28.9378 26.8542ZM20.0212 17.4792L21.4587 18.9166C22.1253 19.5833 22.4587 20.7083 22.2503 21.625L21.8545 23.2917L23.5212 22.3125C24.417 21.7917 25.6253 21.7917 26.5003 22.3125L28.167 23.2917L27.792 21.625C27.5837 20.6875 27.8962 19.5833 28.5628 18.9166L30.0003 17.4792L28.1878 17.1667C27.3128 17.0208 26.4378 16.375 26.042 15.5834L25.0003 13.5417L23.9587 15.625C23.5837 16.3958 22.7087 17.0625 21.8337 17.2084L20.0212 17.4792Z" fill="#AEB9E1"/>
</svg>
