<svg width="40" height="40" viewBox="0 0 40 40" fill="none" xmlns="http://www.w3.org/2000/svg">
<path d="M13.3333 37.1998C12.8666 37.1998 12.3832 37.0832 11.9499 36.8499C10.9999 36.3499 10.4166 35.3498 10.4166 34.2831V31.9166C5.38325 31.3999 2.08325 27.6998 2.08325 22.3998V12.3999C2.08325 6.66657 5.93325 2.81657 11.6666 2.81657H28.3333C34.0666 2.81657 37.9166 6.66657 37.9166 12.3999V22.3998C37.9166 28.1331 34.0666 31.9831 28.3333 31.9831H22.0499L14.9499 36.7166C14.4665 37.0333 13.8999 37.1998 13.3333 37.1998ZM11.6666 5.29988C7.36659 5.29988 4.58325 8.08322 4.58325 12.3832V22.3833C4.58325 26.6833 7.36659 29.4667 11.6666 29.4667C12.3499 29.4667 12.9166 30.0333 12.9166 30.7167V34.2667C12.9166 34.4833 13.0499 34.5833 13.1333 34.6333C13.2166 34.6833 13.3833 34.7333 13.5666 34.6166L20.9833 29.6833C21.1833 29.55 21.4333 29.4667 21.6833 29.4667H28.3499C32.6499 29.4667 35.4333 26.6833 35.4333 22.3833V12.3832C35.4333 8.08322 32.6499 5.29988 28.3499 5.29988H11.6666Z" fill="#0F4662"/>
<path d="M19.9998 20.1833C19.3164 20.1833 18.7498 19.6166 18.7498 18.9333V18.5834C18.7498 16.65 20.1664 15.7 20.6997 15.3334C21.3164 14.9167 21.5164 14.6334 21.5164 14.2C21.5164 13.3667 20.8331 12.6833 19.9998 12.6833C19.1664 12.6833 18.4832 13.3667 18.4832 14.2C18.4832 14.8834 17.9165 15.45 17.2332 15.45C16.5498 15.45 15.9832 14.8834 15.9832 14.2C15.9832 11.9834 17.7831 10.1833 19.9998 10.1833C22.2164 10.1833 24.0164 11.9834 24.0164 14.2C24.0164 16.1 22.6165 17.05 22.0998 17.4C21.4498 17.8333 21.2498 18.1167 21.2498 18.5834V18.9333C21.2498 19.6333 20.6831 20.1833 19.9998 20.1833Z" fill="#0F4662"/>
<path d="M20 24.3333C19.3 24.3333 18.75 23.7666 18.75 23.0833C18.75 22.4 19.3167 21.8333 20 21.8333C20.6833 21.8333 21.25 22.4 21.25 23.0833C21.25 23.7666 20.7 24.3333 20 24.3333Z" fill="#0F4662"/>
</svg>
