<svg width="26" height="25" viewBox="0 0 26 25" fill="none" xmlns="http://www.w3.org/2000/svg">
<path d="M16.1422 0C16.4184 0 16.6422 0.223858 16.6422 0.5V5.5625L21.0299 3.0293C21.2689 2.89136 21.5744 2.97397 21.7125 3.21289L25.2164 9.2832C25.3543 9.5223 25.2728 9.82774 25.0338 9.96582L20.6461 12.499L25.0338 15.0332C25.2728 15.1712 25.355 15.4767 25.2174 15.7158L21.7135 21.7861C21.5754 22.0252 21.269 22.1078 21.0299 21.9697L16.6422 19.4355V24.5C16.6422 24.7761 16.4184 25 16.1422 25H9.13538C8.85942 24.9998 8.63538 24.776 8.63538 24.5V19.4346L4.25354 21.9658C4.01461 22.1035 3.70903 22.0219 3.57092 21.7832L0.0670166 15.7129C-0.0708367 15.4739 0.0107932 15.1674 0.249634 15.0293L4.62952 12.499L0.249634 9.96973C0.0108961 9.83155 -0.0708109 9.52512 0.0670166 9.28613L3.57092 3.21582C3.70898 2.9771 4.0146 2.89557 4.25354 3.0332L8.63538 5.56348V0.5C8.63538 0.223989 8.85942 0.000213252 9.13538 0H16.1422ZM12.6422 9.15527C10.7956 9.15527 9.29846 10.653 9.29846 12.5C9.2987 14.3468 10.7957 15.8438 12.6422 15.8438C14.4885 15.8435 15.9848 14.3467 15.985 12.5C15.985 10.6531 14.4886 9.1555 12.6422 9.15527Z" fill="#AEB9E1"/>
</svg>
