<svg width="30" height="30" viewBox="0 0 30 30" fill="none" xmlns="http://www.w3.org/2000/svg">
<path d="M15.0125 28.425C14.225 28.425 13.45 28.1625 12.8375 27.6375L10.8625 25.95C10.6625 25.775 10.1625 25.6 9.90002 25.6H7.71252C5.86252 25.6 4.36252 24.1 4.36252 22.25V20.1125C4.36252 19.85 4.18752 19.35 4.02502 19.1625L2.32502 17.1625C1.30002 15.95 1.30002 14.05 2.32502 12.825L4.02502 10.825C4.18752 10.6375 4.36252 10.1375 4.36252 9.87502V7.75002C4.36252 5.90002 5.86252 4.40002 7.71252 4.40002H9.87502C10.1375 4.40002 10.625 4.21252 10.8375 4.03752L12.8125 2.35002C14.0375 1.31252 15.95 1.31252 17.175 2.35002L19.15 4.03752C19.35 4.21252 19.8625 4.38752 20.125 4.38752H22.25C24.1 4.38752 25.6 5.88752 25.6 7.73752V9.86252C25.6 10.125 25.7875 10.6125 25.9625 10.825L27.65 12.8C28.7 14.0375 28.6875 15.95 27.65 17.1625L25.9625 19.1375C25.7875 19.35 25.6125 19.8375 25.6125 20.1V22.225C25.6125 24.075 24.1125 25.575 22.2625 25.575H20.1375C19.875 25.575 19.3875 25.7625 19.1625 25.9375L17.1875 27.625C16.575 28.1625 15.7875 28.425 15.0125 28.425ZM7.71252 6.27502C6.90002 6.27502 6.23752 6.93752 6.23752 7.75002V9.87502C6.23752 10.5875 5.91252 11.4875 5.45002 12.0375L3.75002 14.0375C3.32502 14.55 3.32502 15.45 3.75002 15.95L5.43752 17.9375C5.88752 18.45 6.22502 19.3875 6.22502 20.1V22.2375C6.22502 23.05 6.88752 23.7125 7.70002 23.7125H9.87502C10.575 23.7125 11.5 24.05 12.05 24.5125L14.0375 26.2125C14.55 26.65 15.45 26.65 15.9625 26.2125L17.9375 24.525C18.5 24.05 19.4125 23.725 20.1125 23.725H22.2375C23.05 23.725 23.7125 23.0625 23.7125 22.25V20.125C23.7125 19.425 24.05 18.5125 24.5125 17.95L26.2125 15.9625C26.65 15.45 26.65 14.55 26.2125 14.0375L24.525 12.0625C24.05 11.5 23.725 10.5875 23.725 9.88752V7.75002C23.725 6.93752 23.0625 6.27502 22.25 6.27502H20.125C19.4125 6.27502 18.4875 5.93752 17.9375 5.47502L15.95 3.77502C15.4375 3.33752 14.55 3.33752 14.025 3.77502L12.0625 5.47502C11.5 5.93752 10.5875 6.27502 9.87502 6.27502H7.71252Z" fill="#AEB9E1"/>
<path d="M15 21.0875C14.3125 21.0875 13.75 20.525 13.75 19.8375C13.75 19.15 14.3 18.5875 15 18.5875C15.6875 18.5875 16.25 19.15 16.25 19.8375C16.25 20.525 15.7 21.0875 15 21.0875Z" fill="#AEB9E1"/>
<path d="M15 17.15C14.4875 17.15 14.0625 16.725 14.0625 16.2125V10.1625C14.0625 9.64998 14.4875 9.22498 15 9.22498C15.5125 9.22498 15.9375 9.64998 15.9375 10.1625V16.2C15.9375 16.725 15.525 17.15 15 17.15Z" fill="#AEB9E1"/>
</svg>
