<svg width="50" height="50" viewBox="0 0 50 50" fill="none" xmlns="http://www.w3.org/2000/svg">
<path d="M25.3125 40.3125C24.4583 40.3125 23.75 39.6042 23.75 38.75V34.375C23.75 33.5208 24.4583 32.8125 25.3125 32.8125C26.1667 32.8125 26.875 33.5208 26.875 34.375V38.75C26.875 39.6042 26.1667 40.3125 25.3125 40.3125Z" fill="#AEB9E1"/>
<path d="M37.2916 47.3958H13.3333V43.75C13.3333 40.5833 15.8958 38.0208 19.0624 38.0208H31.5624C34.7291 38.0208 37.2916 40.5833 37.2916 43.75V47.3958ZM16.4583 44.2708H34.1666V43.75C34.1666 42.3125 32.9999 41.1458 31.5624 41.1458H19.0624C17.6249 41.1458 16.4583 42.3125 16.4583 43.75V44.2708Z" fill="#AEB9E1"/>
<path d="M37.8125 47.3958H12.8125C11.9583 47.3958 11.25 46.6875 11.25 45.8333C11.25 44.9792 11.9583 44.2708 12.8125 44.2708H37.8125C38.6667 44.2708 39.375 44.9792 39.375 45.8333C39.375 46.6875 38.6667 47.3958 37.8125 47.3958Z" fill="#AEB9E1"/>
<path d="M38.3957 25.9167C37.9582 25.9167 37.5207 25.7292 37.2082 25.375C36.8124 24.9167 36.7082 24.2708 36.9582 23.7292C37.6666 22.1042 38.0207 20.375 38.0207 18.5625V12.3125C38.0207 11.5833 37.8957 10.875 37.6457 10.125C37.6249 10.0625 37.6041 9.97916 37.5832 9.89583C37.5207 9.58333 37.4999 9.27083 37.4999 8.97916C37.4999 8.125 38.2082 7.41666 39.0624 7.41666H40.3124C44.0416 7.41666 47.0832 10.5417 47.0832 14.3958C47.0832 17.5833 45.7707 20.7292 43.4999 23C43.4582 23.0417 43.3332 23.1458 43.3124 23.1667C42.0832 24.1875 40.6874 25.3333 38.8124 25.8542C38.6666 25.8958 38.5416 25.9167 38.3957 25.9167ZM40.9999 10.6042C41.1041 11.1667 41.1457 11.75 41.1457 12.3125V18.5625C41.1457 19.4167 41.0832 20.2292 40.9582 21.0625C41.0832 20.9583 41.1874 20.875 41.3124 20.7708C42.9791 19.1042 43.9582 16.7708 43.9582 14.3958C43.9582 12.5208 42.6874 10.9375 40.9999 10.6042Z" fill="#AEB9E1"/>
<path d="M11.6251 25.8333C11.4584 25.8333 11.3126 25.8125 11.1459 25.75C9.43758 25.2083 7.83341 24.2083 6.50008 22.875C4.10425 20.2292 2.91675 17.3333 2.91675 14.2708C2.91675 10.4792 5.89591 7.5 9.68758 7.5H11.0417C11.5626 7.5 12.0626 7.77083 12.3542 8.20833C12.6459 8.64583 12.6876 9.20833 12.4792 9.6875C12.1459 10.4375 11.9792 11.2917 11.9792 12.1875V18.4375C11.9792 20.2292 12.3334 21.9792 13.0626 23.6458C13.3126 24.2083 13.1876 24.8542 12.7917 25.3125C12.4792 25.6458 12.0626 25.8333 11.6251 25.8333ZM8.95841 10.6875C7.27091 11.0208 6.04175 12.4792 6.04175 14.2708C6.04175 16.5417 6.95841 18.7292 8.77091 20.7292C8.85425 20.8333 8.95841 20.9167 9.06258 21C8.91675 20.1458 8.85425 19.2917 8.85425 18.4375V12.1875C8.85425 11.6875 8.89591 11.1875 8.95841 10.6875Z" fill="#AEB9E1"/>
<path d="M25.0001 34.8958C16.1042 34.8958 8.85425 27.6458 8.85425 18.75V12.5C8.85425 7.04166 13.2917 2.60416 18.7501 2.60416H31.2501C36.7084 2.60416 41.1459 7.04166 41.1459 12.5V18.75C41.1459 27.6458 33.8959 34.8958 25.0001 34.8958ZM18.7501 5.72916C15.0209 5.72916 11.9792 8.77083 11.9792 12.5V18.75C11.9792 25.9375 17.8126 31.7708 25.0001 31.7708C32.1876 31.7708 38.0209 25.9375 38.0209 18.75V12.5C38.0209 8.77083 34.9792 5.72916 31.2501 5.72916H18.7501Z" fill="#AEB9E1"/>
</svg>
